<?xml version="1.0" encoding="utf-8"?>
<!-- Generator: Adobe Illustrator 19.2.1, SVG Export Plug-In . SVG Version: 6.00 Build 0)  -->
<svg version="1.1" id="Layer_1" xmlns="http://www.w3.org/2000/svg" xmlns:xlink="http://www.w3.org/1999/xlink" x="0px" y="0px"
	 viewBox="0 0 64 64" style="enable-background:new 0 0 64 64;" xml:space="preserve">
<style type="text/css">
	.st0{fill-rule:evenodd;clip-rule:evenodd;fill:#000000;}
	.st1{fill:#000000;}
</style>
<g>
	<path class="st0" d="M32.1,0.8C14.5,0.8,0.3,15,0.3,32.6c0,14.1,9.1,26,21.8,30.2c1.6,0.3,2.2-0.7,2.2-1.5c0-0.8,0-3.3,0-5.9
		c-8.9,1.9-10.7-3.8-10.7-3.8C12,48,9.9,47,9.9,47C7,45,10.1,45,10.1,45c3.2,0.2,4.9,3.3,4.9,3.3c2.8,4.9,7.5,3.5,9.3,2.6
		c0.3-2.1,1.1-3.5,2-4.3c-7.1-0.8-14.5-3.5-14.5-15.8c0-3.5,1.2-6.3,3.3-8.6c-0.3-0.8-1.4-4,0.3-8.4c0,0,2.7-0.9,8.8,3.3
		c2.5-0.7,5.3-1.1,8-1.1c2.7,0,5.4,0.4,8,1.1c6.1-4.1,8.8-3.3,8.8-3.3c1.7,4.4,0.6,7.6,0.3,8.4c2,2.2,3.3,5.1,3.3,8.6
		c0,12.2-7.5,14.9-14.6,15.7c1.1,1,2.2,2.9,2.2,5.9c0,4.3,0,7.7,0,8.7c0,0.8,0.6,1.8,2.2,1.5C54.9,58.7,64,46.7,64,32.6
		C64,15,49.7,0.8,32.1,0.8z"/>
	<path class="st1" d="M12.3,46.5c-0.1,0.2-0.3,0.2-0.5,0.1c-0.2-0.1-0.4-0.3-0.3-0.5c0.1-0.2,0.3-0.2,0.5-0.1
		C12.3,46.1,12.4,46.4,12.3,46.5L12.3,46.5z M11.9,46.2"/>
	<path class="st1" d="M13.6,48c-0.2,0.1-0.4,0.1-0.7-0.1c-0.2-0.2-0.2-0.5-0.1-0.7c0.2-0.1,0.4-0.1,0.7,0.1
		C13.7,47.5,13.8,47.8,13.6,48L13.6,48z M13.3,47.6"/>
	<path class="st1" d="M14.9,49.8c-0.2,0.1-0.5,0-0.7-0.3c-0.2-0.3-0.2-0.6,0-0.8c0.2-0.1,0.5,0,0.7,0.3
		C15.1,49.3,15.1,49.7,14.9,49.8L14.9,49.8z M14.9,49.8"/>
	<path class="st1" d="M16.6,51.6c-0.2,0.2-0.5,0.1-0.8-0.1c-0.3-0.3-0.4-0.6-0.2-0.8c0.2-0.2,0.6-0.1,0.8,0.1
		C16.7,51,16.8,51.4,16.6,51.6L16.6,51.6z M16.6,51.6"/>
	<path class="st1" d="M19,52.6c-0.1,0.2-0.4,0.4-0.8,0.3c-0.4-0.1-0.6-0.4-0.5-0.7c0.1-0.3,0.4-0.4,0.8-0.3
		C18.8,52.1,19,52.3,19,52.6L19,52.6z M19,52.6"/>
	<path class="st1" d="M21.6,52.8c0,0.3-0.3,0.5-0.7,0.5c-0.4,0-0.7-0.2-0.7-0.5c0-0.3,0.3-0.5,0.7-0.5
		C21.3,52.3,21.6,52.5,21.6,52.8L21.6,52.8z M21.6,52.8"/>
	<path class="st1" d="M24,52.4c0,0.3-0.2,0.5-0.6,0.6c-0.4,0.1-0.7-0.1-0.8-0.3c0-0.3,0.2-0.5,0.6-0.6C23.6,52,24,52.1,24,52.4
		L24,52.4z M24,52.4"/>
</g>
</svg>
